<mxfile host="app.diagrams.net" modified="2020-12-09T15:25:08.568Z" agent="5.0 (Windows)" etag="eUhCZdgpq4p8WjCbCnEn" version="13.10.6" type="github">
  <diagram name="Page-1" id="e7e014a7-5840-1c2e-5031-d8a46d1fe8dd">
    <mxGraphModel dx="1806" dy="909" grid="1" gridSize="10" guides="1" tooltips="1" connect="1" arrows="1" fold="1" page="1" pageScale="1" pageWidth="980" pageHeight="1390" background="#ffffff" math="0" shadow="0">
      <root>
        <mxCell id="0" />
        <mxCell id="1" parent="0" />
        <mxCell id="9RaUeARzdxXOr93nFO7e-41" value="" style="ellipse;fillColor=#000000;strokeColor=none;" parent="1" vertex="1">
          <mxGeometry x="465" y="28" width="50" height="50" as="geometry" />
        </mxCell>
        <mxCell id="9RaUeARzdxXOr93nFO7e-42" value="&lt;font style=&quot;font-size: 19px&quot;&gt;کلیک کردن بر روی فعالسازی منو&lt;/font&gt;" style="shape=rect;html=1;rounded=1;whiteSpace=wrap;align=center;fontSize=21;fontStyle=1" parent="1" vertex="1">
          <mxGeometry x="400" y="130" width="180" height="70" as="geometry" />
        </mxCell>
        <mxCell id="9RaUeARzdxXOr93nFO7e-43" value="" style="endArrow=open;endFill=1;endSize=12;html=1;fontSize=21;exitX=0.5;exitY=1;exitDx=0;exitDy=0;entryX=0.5;entryY=0;entryDx=0;entryDy=0;" parent="1" source="9RaUeARzdxXOr93nFO7e-41" target="9RaUeARzdxXOr93nFO7e-42" edge="1">
          <mxGeometry width="160" relative="1" as="geometry">
            <mxPoint x="515" y="278" as="sourcePoint" />
            <mxPoint x="675" y="278" as="targetPoint" />
          </mxGeometry>
        </mxCell>
        <mxCell id="9RaUeARzdxXOr93nFO7e-46" value="" style="rhombus;fontSize=21;" parent="1" vertex="1">
          <mxGeometry x="465" y="260" width="50" height="50" as="geometry" />
        </mxCell>
        <mxCell id="9RaUeARzdxXOr93nFO7e-47" value="" style="endArrow=open;endFill=1;endSize=12;html=1;fontSize=21;exitX=0.5;exitY=1;exitDx=0;exitDy=0;entryX=0.5;entryY=0;entryDx=0;entryDy=0;" parent="1" source="9RaUeARzdxXOr93nFO7e-42" target="9RaUeARzdxXOr93nFO7e-46" edge="1">
          <mxGeometry width="160" relative="1" as="geometry">
            <mxPoint x="490" y="358" as="sourcePoint" />
            <mxPoint x="529" y="438" as="targetPoint" />
          </mxGeometry>
        </mxCell>
        <mxCell id="9RaUeARzdxXOr93nFO7e-53" value="&lt;font style=&quot;font-size: 19px&quot;&gt;وارد کردن تعداد غذا&lt;/font&gt;" style="shape=rect;html=1;rounded=1;whiteSpace=wrap;align=center;fontSize=21;fontStyle=1" parent="1" vertex="1">
          <mxGeometry x="402.5" y="490" width="175" height="50" as="geometry" />
        </mxCell>
        <mxCell id="9RaUeARzdxXOr93nFO7e-55" value="&lt;font style=&quot;font-size: 19px&quot;&gt;وارد کردن قیمت غذا&lt;/font&gt;" style="shape=rect;html=1;rounded=1;whiteSpace=wrap;align=center;fontSize=21;fontStyle=1" parent="1" vertex="1">
          <mxGeometry x="402.5" y="590" width="175" height="50" as="geometry" />
        </mxCell>
        <mxCell id="9RaUeARzdxXOr93nFO7e-58" value="&lt;font style=&quot;font-size: 16px&quot;&gt;غذا جدید است&lt;/font&gt;" style="endArrow=classic;html=1;exitX=1;exitY=0.5;exitDx=0;exitDy=0;entryX=0.5;entryY=0;entryDx=0;entryDy=0;" parent="1" source="9RaUeARzdxXOr93nFO7e-46" target="9RaUeARzdxXOr93nFO7e-61" edge="1">
          <mxGeometry width="50" height="50" relative="1" as="geometry">
            <mxPoint x="515" y="330" as="sourcePoint" />
            <mxPoint x="685" y="285" as="targetPoint" />
            <Array as="points">
              <mxPoint x="685" y="285" />
            </Array>
          </mxGeometry>
        </mxCell>
        <mxCell id="9RaUeARzdxXOr93nFO7e-59" value="" style="endArrow=classic;html=1;exitX=0;exitY=0.5;exitDx=0;exitDy=0;entryX=0.5;entryY=0;entryDx=0;entryDy=0;" parent="1" source="9RaUeARzdxXOr93nFO7e-46" target="9RaUeARzdxXOr93nFO7e-66" edge="1">
          <mxGeometry width="50" height="50" relative="1" as="geometry">
            <mxPoint x="435" y="283.5" as="sourcePoint" />
            <mxPoint x="435" y="418.5" as="targetPoint" />
            <Array as="points">
              <mxPoint x="295" y="285" />
            </Array>
          </mxGeometry>
        </mxCell>
        <mxCell id="9RaUeARzdxXOr93nFO7e-60" value="" style="rhombus;fontSize=21;" parent="1" vertex="1">
          <mxGeometry x="465" y="393" width="50" height="50" as="geometry" />
        </mxCell>
        <mxCell id="9RaUeARzdxXOr93nFO7e-61" value="&lt;font size=&quot;1&quot;&gt;&lt;b style=&quot;font-size: 19px&quot;&gt;افزودن به لیست غذاها&lt;/b&gt;&lt;/font&gt;" style="rounded=1;whiteSpace=wrap;html=1;" parent="1" vertex="1">
          <mxGeometry x="625" y="320" width="120" height="60" as="geometry" />
        </mxCell>
        <mxCell id="9RaUeARzdxXOr93nFO7e-62" value="" style="endArrow=classic;html=1;exitX=0.5;exitY=1;exitDx=0;exitDy=0;entryX=1;entryY=0.5;entryDx=0;entryDy=0;" parent="1" source="9RaUeARzdxXOr93nFO7e-76" target="9RaUeARzdxXOr93nFO7e-75" edge="1">
          <mxGeometry width="50" height="50" relative="1" as="geometry">
            <mxPoint x="675" y="805" as="sourcePoint" />
            <mxPoint x="505" y="843" as="targetPoint" />
            <Array as="points">
              <mxPoint x="685" y="853" />
            </Array>
          </mxGeometry>
        </mxCell>
        <mxCell id="9RaUeARzdxXOr93nFO7e-63" value="" style="endArrow=classic;html=1;exitX=0.5;exitY=1;exitDx=0;exitDy=0;entryX=0.5;entryY=0;entryDx=0;entryDy=0;" parent="1" source="9RaUeARzdxXOr93nFO7e-60" target="9RaUeARzdxXOr93nFO7e-53" edge="1">
          <mxGeometry width="50" height="50" relative="1" as="geometry">
            <mxPoint x="500" y="340" as="sourcePoint" />
            <mxPoint x="500" y="423" as="targetPoint" />
          </mxGeometry>
        </mxCell>
        <mxCell id="9RaUeARzdxXOr93nFO7e-66" value="&lt;font size=&quot;1&quot;&gt;&lt;b style=&quot;font-size: 19px&quot;&gt;انتخاب غذا از لیست&lt;/b&gt;&lt;/font&gt;" style="rounded=1;whiteSpace=wrap;html=1;" parent="1" vertex="1">
          <mxGeometry x="235" y="320" width="120" height="60" as="geometry" />
        </mxCell>
        <mxCell id="9RaUeARzdxXOr93nFO7e-67" value="" style="endArrow=classic;html=1;exitX=0.5;exitY=1;exitDx=0;exitDy=0;entryX=0;entryY=0.5;entryDx=0;entryDy=0;" parent="1" source="9RaUeARzdxXOr93nFO7e-66" target="9RaUeARzdxXOr93nFO7e-60" edge="1">
          <mxGeometry width="50" height="50" relative="1" as="geometry">
            <mxPoint x="425" y="388.5" as="sourcePoint" />
            <mxPoint x="435" y="416.5" as="targetPoint" />
            <Array as="points">
              <mxPoint x="295" y="416.5" />
            </Array>
          </mxGeometry>
        </mxCell>
        <mxCell id="9RaUeARzdxXOr93nFO7e-70" value="" style="endArrow=classic;html=1;entryX=0.5;entryY=0;entryDx=0;entryDy=0;exitX=0.5;exitY=1;exitDx=0;exitDy=0;" parent="1" source="9RaUeARzdxXOr93nFO7e-53" target="9RaUeARzdxXOr93nFO7e-55" edge="1">
          <mxGeometry width="50" height="50" relative="1" as="geometry">
            <mxPoint x="345" y="570" as="sourcePoint" />
            <mxPoint x="395" y="520" as="targetPoint" />
          </mxGeometry>
        </mxCell>
        <mxCell id="9RaUeARzdxXOr93nFO7e-72" value="" style="rhombus;fontSize=21;" parent="1" vertex="1">
          <mxGeometry x="465" y="695" width="50" height="50" as="geometry" />
        </mxCell>
        <mxCell id="9RaUeARzdxXOr93nFO7e-73" value="&lt;font style=&quot;font-size: 16px&quot;&gt;امکان ارسال سفارش&lt;/font&gt;" style="endArrow=classic;html=1;exitX=1;exitY=0.5;exitDx=0;exitDy=0;entryX=0.5;entryY=0;entryDx=0;entryDy=0;" parent="1" source="9RaUeARzdxXOr93nFO7e-72" edge="1">
          <mxGeometry width="50" height="50" relative="1" as="geometry">
            <mxPoint x="515" y="765" as="sourcePoint" />
            <mxPoint x="685" y="755" as="targetPoint" />
            <Array as="points">
              <mxPoint x="685" y="720" />
            </Array>
          </mxGeometry>
        </mxCell>
        <mxCell id="9RaUeARzdxXOr93nFO7e-74" value="" style="endArrow=classic;html=1;exitX=0.5;exitY=1;exitDx=0;exitDy=0;entryX=0.5;entryY=0;entryDx=0;entryDy=0;" parent="1" source="9RaUeARzdxXOr93nFO7e-72" target="9RaUeARzdxXOr93nFO7e-75" edge="1">
          <mxGeometry width="50" height="50" relative="1" as="geometry">
            <mxPoint x="435" y="718.5" as="sourcePoint" />
            <mxPoint x="435" y="853.5" as="targetPoint" />
            <Array as="points" />
          </mxGeometry>
        </mxCell>
        <mxCell id="9RaUeARzdxXOr93nFO7e-75" value="" style="rhombus;fontSize=21;" parent="1" vertex="1">
          <mxGeometry x="465" y="828" width="50" height="50" as="geometry" />
        </mxCell>
        <mxCell id="9RaUeARzdxXOr93nFO7e-76" value="&lt;span style=&quot;font-size: 19px&quot;&gt;&lt;b&gt;تیک زدن گزینه ی ارسال غذا&lt;/b&gt;&lt;/span&gt;" style="rounded=1;whiteSpace=wrap;html=1;" parent="1" vertex="1">
          <mxGeometry x="625" y="755" width="120" height="60" as="geometry" />
        </mxCell>
        <mxCell id="9RaUeARzdxXOr93nFO7e-80" value="" style="endArrow=classic;html=1;exitX=0.5;exitY=1;exitDx=0;exitDy=0;entryX=1;entryY=0.5;entryDx=0;entryDy=0;" parent="1" source="9RaUeARzdxXOr93nFO7e-61" target="9RaUeARzdxXOr93nFO7e-60" edge="1">
          <mxGeometry width="50" height="50" relative="1" as="geometry">
            <mxPoint x="710" y="780" as="sourcePoint" />
            <mxPoint x="500" y="818" as="targetPoint" />
            <Array as="points">
              <mxPoint x="685" y="418" />
            </Array>
          </mxGeometry>
        </mxCell>
        <mxCell id="9RaUeARzdxXOr93nFO7e-84" value="" style="endArrow=classic;html=1;entryX=0.5;entryY=0;entryDx=0;entryDy=0;exitX=0.5;exitY=1;exitDx=0;exitDy=0;" parent="1" source="9RaUeARzdxXOr93nFO7e-55" target="9RaUeARzdxXOr93nFO7e-72" edge="1">
          <mxGeometry width="50" height="50" relative="1" as="geometry">
            <mxPoint x="500" y="560" as="sourcePoint" />
            <mxPoint x="500" y="600" as="targetPoint" />
          </mxGeometry>
        </mxCell>
        <mxCell id="9RaUeARzdxXOr93nFO7e-85" value="&lt;font style=&quot;font-size: 18px&quot;&gt;کلیک کردن بر روی ثبت منو&lt;/font&gt;" style="shape=rect;html=1;rounded=1;whiteSpace=wrap;align=center;fontSize=21;fontStyle=1" parent="1" vertex="1">
          <mxGeometry x="403" y="928" width="175" height="50" as="geometry" />
        </mxCell>
        <mxCell id="9RaUeARzdxXOr93nFO7e-86" value="" style="endArrow=classic;html=1;entryX=0.5;entryY=0;entryDx=0;entryDy=0;exitX=0.5;exitY=1;exitDx=0;exitDy=0;" parent="1" target="9RaUeARzdxXOr93nFO7e-85" edge="1">
          <mxGeometry width="50" height="50" relative="1" as="geometry">
            <mxPoint x="490.5" y="878" as="sourcePoint" />
            <mxPoint x="395.5" y="858" as="targetPoint" />
          </mxGeometry>
        </mxCell>
        <mxCell id="Rb3ijf_uwXJVVXTIl9RE-1" value="" style="ellipse;html=1;shape=endState;fillColor=#000000;strokeColor=#000000;" parent="1" vertex="1">
          <mxGeometry x="465" y="1160" width="50" height="50" as="geometry" />
        </mxCell>
        <mxCell id="xWk9efRamBadg3AurZ7h-1" value="&lt;font style=&quot;font-size: 26px&quot;&gt;فعالسازی منو برای رستوران&lt;/font&gt;" style="text;html=1;strokeColor=none;fillColor=none;align=center;verticalAlign=middle;whiteSpace=wrap;rounded=0;" vertex="1" parent="1">
          <mxGeometry x="10" y="20" width="270" height="80" as="geometry" />
        </mxCell>
        <mxCell id="xWk9efRamBadg3AurZ7h-2" value="ثبت غذا در منو" style="shape=rect;html=1;rounded=1;whiteSpace=wrap;align=center;fontSize=21;fontStyle=1" vertex="1" parent="1">
          <mxGeometry x="405" y="1030" width="175" height="50" as="geometry" />
        </mxCell>
        <mxCell id="xWk9efRamBadg3AurZ7h-3" value="" style="endArrow=classic;html=1;entryX=0.5;entryY=0;entryDx=0;entryDy=0;exitX=0.5;exitY=1;exitDx=0;exitDy=0;" edge="1" parent="1" target="xWk9efRamBadg3AurZ7h-2">
          <mxGeometry width="50" height="50" relative="1" as="geometry">
            <mxPoint x="490.5" y="978" as="sourcePoint" />
            <mxPoint x="490.5" y="1130" as="targetPoint" />
          </mxGeometry>
        </mxCell>
        <mxCell id="xWk9efRamBadg3AurZ7h-4" value="" style="endArrow=classic;html=1;entryX=0.5;entryY=0;entryDx=0;entryDy=0;exitX=0.5;exitY=1;exitDx=0;exitDy=0;" edge="1" parent="1" source="xWk9efRamBadg3AurZ7h-2" target="Rb3ijf_uwXJVVXTIl9RE-1">
          <mxGeometry width="50" height="50" relative="1" as="geometry">
            <mxPoint x="489" y="1080" as="sourcePoint" />
            <mxPoint x="491" y="1132" as="targetPoint" />
          </mxGeometry>
        </mxCell>
      </root>
    </mxGraphModel>
  </diagram>
</mxfile>
